<?xml version="1.0" encoding="iso-8859-1"?>
<!-- Generator: Adobe Illustrator 19.0.0, SVG Export Plug-In . SVG Version: 6.00 Build 0)  -->
<svg version="1.1" id="Capa_1" xmlns="http://www.w3.org/2000/svg" xmlns:xlink="http://www.w3.org/1999/xlink" x="0px" y="0px"
	 viewBox="0 0 512 512" style="enable-background:new 0 0 512 512;" xml:space="preserve">
<polygon style="fill:#57565C;" points="472.147,236.791 467.772,228.141 451.01,211.468 269.633,31.088 259.06,20.564 
	251.663,24.241 342.75,490.944 354.332,483.094 467.174,406.647 512,315.69 "/>
<polygon style="fill:#A8A7AD;" points="238.789,30.64 99.169,100.011 87.559,105.781 77.105,120.899 16.085,209.126 0,232.376 
	0,393.263 129.973,469.401 148.011,479.965 177.41,481.699 315.256,489.851 342.024,491.436 342.75,490.944 251.663,24.241 "/>
<path style="fill:#DCDCDE;" d="M472.147,236.791l-4.375-8.65l-16.762-16.673l-8.969,19.094l-97.764,198.707L270.819,35.981
	l-1.186-4.893l-10.574-10.524l-20.27,10.075l2.711,11.211l34.043,182.293L106.384,105.313l-7.215-5.302l-11.61,5.77l-10.454,15.118
	l11.71,8.6l174.042,122.26L74.115,306.252l-46.291-76.816l-11.74-20.31L0,232.376v8.68l2.003,3.468L134.288,464.03l5.008,10.831
	l8.715,5.103l11.43,0.675l10.375-14.128l119.031-171.162l33.435,178.995l2.819,16.09l16.923,1.002l8.911-6.039l2.509-7.046
	l115.483-234.713L472.147,236.791z M153.373,437.78L90.08,332.761l170.574-49.251L153.373,437.78z"/>
<polygon style="fill:#C2C1C7;" points="0.877,231.109 0,232.376 0,241.056 0.877,242.575 "/>
<g>
</g>
<g>
</g>
<g>
</g>
<g>
</g>
<g>
</g>
<g>
</g>
<g>
</g>
<g>
</g>
<g>
</g>
<g>
</g>
<g>
</g>
<g>
</g>
<g>
</g>
<g>
</g>
<g>
</g>
</svg>
