<svg height="512pt" viewBox="0 0 512.00353 512" width="512pt" xmlns="http://www.w3.org/2000/svg"><path d="m503.46875 102.304688s-.511719 45.570312-98.132812 76.460937c-56.488282 17.917969-99.414063 31.574219-125.523438 39.765625l-54.015625-9.898438c-13.996094-4.097656-35.414063-5.378906-68.523437 1.023438l-5.121094-17.066406-7.253906-24.492188c51.882812-14.335937 82.347656-14.847656 100.183593-10.75l48.125 12.203125 185.089844-59.222656zm0 0" fill="#0377bc"/><path d="m275.203125 187.554688v2.558593c2.730469 2.730469 8.535156 11.007813 4.609375 28.417969-4.011719 17.664062-18.175781 44.96875-56.066406 85.757812l-31.316406-30.121093c.085937-.085938.171874-.257813.257812-.339844 23.550781-29.699219 31.488281-50.859375 33.109375-65.195313.40625-3.546874.375-7.128906-.085937-10.667968v-.171875l5.886718-26.964844c3.753906-3.839844 8.449219-8.53125 13.996094-13.992187 20.308594-20.3125 52.136719-51.285157 92.246094-92.332032 36.777344-37.632812 66.644531-50.773437 86.953125-54.613281 9.851562-2.449219 20.1875-2.125 29.867187.9375l-160.34375 157.613281zm0 0" fill="#00838f"/><path d="m478.296875 110.328125c-11.347656 15.785156-35.839844 36.609375-88.234375 53.164063l-125.527344 39.761718-54.015625-9.898437c-19.171875-4.46875-39.082031-4.730469-58.367187-.765625l-7.253906-24.492188c51.882812-14.335937 82.347656-14.847656 100.183593-10.75l48.125 12.203125zm0 0" fill="#02a9f4"/><path d="m259.929688 172.28125v2.558594c2.730468 2.730468 8.445312 11.007812 4.605468 28.414062-4.007812 17.664063-18.175781 44.886719-56.0625 85.761719l-15.785156-15.1875c23.550781-29.699219 31.488281-50.859375 33.109375-65.195313.40625-3.546874.375-7.128906-.085937-10.667968v-.171875l5.886718-26.964844c3.753906-3.839844 8.449219-8.53125 13.996094-13.992187 20.308594-20.3125 52.136719-51.285157 92.246094-92.332032 36.777344-37.632812 66.644531-50.773437 86.953125-54.613281l-145.75 143.273437zm0 0" fill="#00bcd4"/><path d="m174.851562 396.109375c8.449219-4.597656 16.183594-10.402344 22.953126-17.238281 22.699218-22.699219 32.085937-52.222656 25.855468-74.496094-1.800781-7.195312-5.515625-13.769531-10.75-19.027344-1.898437-1.886718-3.988281-3.574218-6.230468-5.035156-4.324219-2.921875-9.15625-5.003906-14.25-6.144531-22.1875-5.460938-50.859376 4.011719-73.046876 26.28125-24.0625 23.980469-33.191406 55.636719-24.660156 78.507812v.085938c2.105469 5.59375 5.359375 10.679687 9.558594 14.933593 2.085938 2.082032 4.402344 3.914063 6.910156 5.460938 5.261719 3.34375 11.160156 5.554688 17.324219 6.484375-2.253906 14.996094-3.28125 30.148437-3.074219 45.3125-.089844 7.992187 1.445313 15.917969 4.523438 23.296875 16.386718 37.886719 69.972656 37.375 47.445312 4.605469-19.027344-27.730469-9.386718-64.59375-2.558594-82.941407zm-46.421874-26.28125c-3.195313-5.347656-3.730469-11.871094-1.449219-17.664063 2.914062-10.519531 8.636719-20.046874 16.554687-27.5625 8.308594-8.855468 19.160156-14.90625 31.058594-17.324218 4.820312-1.375 10-.566406 14.167969 2.21875 5.289062 5.289062 3.667969 26.539062-15.105469 45.226562s-39.9375 20.394532-45.226562 15.105469zm0 0" fill="#f44335"/><path d="m174.851562 396.109375c8.449219-4.597656 16.183594-10.402344 22.953126-17.238281 22.699218-22.699219 32.085937-52.222656 25.855468-74.496094-1.800781-7.195312-5.515625-13.769531-10.75-19.027344-1.898437-1.886718-3.988281-3.574218-6.230468-5.035156-1.390626-.953125-2.84375-1.808594-4.351563-2.5625-3.121094-1.632812-6.453125-2.839844-9.898437-3.582031-22.1875-5.460938-50.859376 4.011719-73.046876 26.28125-24.0625 23.980469-33.191406 55.636719-24.660156 78.507812v.085938c.597656 1.449219 1.195313 2.902343 1.878906 4.265625 1.96875 3.945312 4.558594 7.550781 7.679688 10.667968 1.421875 1.46875 2.996094 2.78125 4.691406 3.925782.707032.558594 1.449219 1.070312 2.21875 1.535156 5.261719 3.34375 11.160156 5.554688 17.324219 6.484375-2.253906 14.996094-3.28125 30.148437-3.074219 45.3125-.089844 7.992187 1.445313 15.917969 4.523438 23.296875.746094 1.773438 1.628906 3.484375 2.648437 5.117188 0 .050781.035157.085937.082031.085937 18.605469 32.597656 66.132813 30.550781 44.714844-.597656-19.027344-27.730469-9.386718-64.59375-2.558594-82.941407zm-46.421874-26.28125c-3.035157-4.917969-3.664063-10.949219-1.707032-16.386719l.257813-1.277344c2.914062-10.519531 8.636719-20.046874 16.554687-27.5625 7.808594-8.265624 17.816406-14.125 28.839844-16.898437.769531-.171875 1.539062-.339844 2.21875-.425781 4.820312-1.375 10-.566406 14.167969 2.21875 5.289062 5.289062 3.667969 26.539062-15.105469 45.226562s-39.9375 20.394532-45.226562 15.105469zm0 0" fill="#f44335"/><path d="m174.851562 396.109375c8.449219-4.597656 16.183594-10.402344 22.953126-17.238281 22.699218-22.699219 32.085937-52.222656 25.855468-74.496094-1.800781-7.195312-5.515625-13.769531-10.75-19.027344-1.898437-1.886718-3.988281-3.574218-6.230468-5.035156.582031 1.347656 1.039062 2.746094 1.367187 4.179688 6.226563 22.273437-3.15625 51.796874-25.855469 74.496093-6.769531 6.835938-14.503906 12.640625-22.957031 17.238281v.085938c-6.824219 18.347656-16.46875 55.210938 2.5625 82.941406 17.40625 25.347656-10.667969 31.40625-31.832031 15.277344.746094 1.773438 1.628906 3.484375 2.648437 5.117188 0 .050781.035157.085937.082031.085937 18.605469 32.597656 66.132813 30.550781 44.714844-.597656-19.027344-27.730469-9.386718-64.59375-2.558594-82.941407zm0 0" fill="#c52828"/><g fill="#f44335"><path d="m156.675781 377.933594c8.464844-4.574219 16.199219-10.382813 22.953125-17.238282 22.785156-22.699218 32.171875-52.222656 25.941406-74.496093-.757812-2.929688-1.847656-5.761719-3.242187-8.449219-3.121094-1.632812-6.453125-2.839844-9.898437-3.582031-22.1875-5.460938-50.859376 4.011719-73.046876 26.28125-24.0625 23.980469-33.191406 55.636719-24.660156 78.507812v.085938c.597656 1.449219 1.195313 2.902343 1.878906 4.265625 4.324219 2.175781 8.957032 3.671875 13.738282 4.4375-.511719 3.074218-.9375 6.398437-1.367188 10.15625.707032.558594 1.449219 1.070312 2.21875 1.535156 5.261719 3.34375 11.160156 5.554688 17.324219 6.484375-2.253906 14.996094-3.28125 30.148437-3.074219 45.3125-.089844 7.992187 1.445313 15.917969 4.523438 23.296875.746094 1.773438 1.628906 3.484375 2.648437 5.117188 0 .050781.035157.085937.082031.085937 20.140626 11.519531 42.582032 4.609375 26.539063-18.773437-19.027344-27.730469-9.300781-64.597657-2.558594-82.855469zm-28.246093-8.105469c-3.035157-4.917969-3.664063-10.949219-1.707032-16.386719-5.480468 1.886719-11.519531 1.230469-16.46875-1.792968-3.164062-5.355469-3.671875-11.878907-1.363281-17.660157 2.863281-10.542969 8.59375-20.082031 16.550781-27.566406 8.324219-8.835937 19.171875-14.886719 31.0625-17.320313 4.796875-1.277343 9.910156-.472656 14.082032 2.21875 3.03125 4.914063 3.6875 10.929688 1.789062 16.382813.769531-.171875 1.539062-.339844 2.21875-.425781 4.820312-1.375 10-.566406 14.167969 2.21875 5.289062 5.289062 3.667969 26.539062-15.105469 45.226562s-39.9375 20.394532-45.226562 15.105469zm0 0"/><path d="m159.234375 376.226562c8.453125-4.597656 16.1875-10.402343 22.957031-17.238281 22.699219-22.699219 32.082032-52.222656 25.855469-74.496093-.328125-1.433594-.785156-2.832032-1.367187-4.179688-1.085938-.765625-2.226563-1.449219-3.414063-2.046875-.300781-.191406-.613281-.363281-.9375-.515625-1.28125-.679688-2.644531-1.277344-4.09375-1.875-.441406-.105469-.867187-.246094-1.28125-.425781-1.480469-.519531-2.992187-.945313-4.523437-1.28125-22.1875-5.460938-50.859376 4.011719-73.046876 26.28125-24.0625 23.980469-33.191406 55.636719-24.660156 78.507812v.085938c.597656 1.449219 1.195313 2.902343 1.878906 4.265625 1.96875 3.945312 4.558594 7.550781 7.679688 10.667968 1.421875 1.46875 2.996094 2.78125 4.691406 3.925782.707032.558594 1.449219 1.070312 2.21875 1.535156 5.261719 3.34375 11.160156 5.554688 17.324219 6.484375-2.253906 14.996094-3.28125 30.148437-3.074219 45.3125-.089844 7.992187 1.445313 15.917969 4.523438 23.296875 21.164062 16.128906 49.238281 10.070312 31.832031-15.277344-19.03125-27.730468-9.386719-64.59375-2.5625-82.941406zm-30.804687-6.398437c-3.195313-5.347656-3.730469-11.871094-1.449219-17.664063 2.914062-10.519531 8.636719-20.046874 16.554687-27.5625 7.808594-8.265624 17.816406-14.125 28.839844-16.898437.769531-.171875 1.539062-.339844 2.21875-.425781 4.820312-1.375 10-.566406 14.167969 2.21875 5.289062 5.289062 3.667969 26.539062-15.105469 45.226562s-39.9375 20.394532-45.226562 15.105469zm0 0"/><path d="m156.8125 186.359375c-2.257812-7.066406-6.359375-13.398437-11.886719-18.347656-16.972656-15.75-47.472656-21.050781-78.0625-11.375-9.074219 3.03125-17.640625 7.414062-25.40625 12.996093-21.109375 14.917969-38.765625 38.792969-31.09375 63.054688 9.242188 29.199219 49.492188 42.511719 89.949219 29.722656 29.945312-9.472656 51.558594-30.542968 56.976562-52.746094 2.054688-7.65625 1.886719-15.738281-.476562-23.304687zm-66.792969 43.519531c-25.230469 7.980469-44.839843-.296875-47.109375-7.472656-2.269531-7.179688 9.011719-25.226562 34.242188-33.203125 25.234375-7.980469 44.851562.296875 47.113281 7.472656s-9.011719 25.207031-34.246094 33.1875zm0 0"/></g><path d="m275.261719 188.945312c0 14.136719-11.460938 25.601563-25.597657 25.601563-14.140624 0-25.601562-11.464844-25.601562-25.601563 0-14.136718 11.460938-25.601562 25.601562-25.601562 14.136719 0 25.597657 11.464844 25.597657 25.601562zm0 0" fill="#1566c0"/><path d="m169.074219 299.734375c-24.242188 7.160156-43.214844 26.109375-50.398438 50.347656-3.183593 8.652344-1.789062 18.328125 3.710938 25.726563 4.167969 3.625 9.59375 5.460937 15.105469 5.121094 3.582031-.03125 7.148437-.503907 10.617187-1.410157 12-3.351562 22.894531-9.828125 31.570313-18.773437 8.941406-8.675782 15.421874-19.570313 18.773437-31.574219 3.183594-8.648437 1.789063-18.320313-3.710937-25.71875-7.375-5.5-17.035157-6.898437-25.667969-3.71875zm-1.433594 48.964844c-14.753906 14.753906-29.253906 15.949219-33.050781 14.941406-1.003906-3.773437.179687-18.28125 14.941406-33.050781 14.765625-14.769532 29.28125-15.949219 33.085938-14.949219.980468 3.78125-.207032 18.285156-14.976563 33.058594zm0 0"/><path d="m508.539062 95.480469c-2.210937-1.625-5.066406-2.09375-7.679687-1.265625l-175.734375 56.183594 135.515625-133.484376c2.027344-1.992187 2.929687-4.867187 2.40625-7.660156-.523437-2.792968-2.40625-5.144531-5.015625-6.265625-2.066406-.855469-51.464844-20.882812-126.292969 55.550781-28.777343 29.441407-52.910156 53.351563-72.332031 72.53125-6.433594 6.367188-12.105469 11.949219-17.21875 17.070313-22.636719-3.839844-54.613281-.316406-95.335938 10.570313-20.171874-15.792969-51.828124-19.976563-82.566406-10.238282-9.914062 3.28125-19.273437 8.054688-27.75 14.15625-22.632812 15.992188-43.519531 43.460938-34.304687 72.601563 6.199219 17.675781 20.671875 31.1875 38.734375 36.164062 9.230468 2.988281 18.882812 4.480469 28.585937 4.421875 11.316407-.046875 22.558594-1.828125 33.339844-5.273437 29.550781-9.347657 52.683594-29.980469 60.851563-53.378907 17.128906-3.582031 34.738281-4.269531 52.09375-2.03125-5.632813 18.261719-14.863282 35.210938-27.144532 49.851563-24.574218-3.480469-53.484375 7.527344-75.355468 29.40625-33.28125 33.28125-40.039063 80.640625-15.089844 105.59375 5.820312 5.753906 12.945312 10.011719 20.773437 12.40625-1.503906 12.921875-2.207031 25.921875-2.109375 38.929687-1.117187 25.902344 14.726563 49.523438 39.117188 58.316407 4.316406 1.464843 8.839844 2.230469 13.398437 2.269531 7.058594.417969 13.902344-2.546875 18.421875-7.988281 3.3125-4.394531 7.277344-14.085938-3.414062-29.636719-15.785156-22.980469-8.925782-54.160156-2.558594-72.394531 8.035156-4.703125 15.429688-10.425781 22-17.023438 22.789062-22.792969 33.6875-52.832031 29.011719-77.953125 29.199219-31.933594 47.273437-59.324218 53.894531-81.65625 26.359375-8.3125 67.542969-21.332031 121.175781-38.347656 102.339844-32.351562 104.046875-82.390625 104.046875-84.507812.015625-2.726563-1.269531-5.296876-3.464844-6.917969zm-289.613281 183.824219c-3.738281-3.691407-8.042969-6.761719-12.75-9.097657 12.105469-15.398437 21.089844-33.007812 26.453125-51.847656 12.496094 7.4375 28.363282 5.949219 39.253906-3.6875-.117187.660156-.179687 1.238281-.332031 1.9375-3.011719 13.195313-13.5 36.15625-45.226562 72.167969-2.066407-3.449219-4.550781-6.632813-7.398438-9.472656zm42.8125-78.292969c-6.667969 6.667969-17.476562 6.667969-24.140625 0-6.667968-6.667969-6.667968-17.476563 0-24.140625l.085938-.070313c6.734375-6.347656 17.304687-6.171875 23.824218.398438 6.519532 6.574219 6.609376 17.144531.203126 23.828125zm9.675781-57.746094c19.449219-19.25 43.65625-43.210937 72.535157-72.746094 42.273437-43.179687 74.410156-52.300781 92.074219-53.28125l-147.738282 145.167969-9.300781 9.300781c-4.378906-7.839843-11.835937-13.496093-20.566406-15.597656 4.027343-4.003906 8.277343-8.21875 12.996093-12.84375zm-173.667968 111.003906c-16.636719 5.625-34.605469 5.953125-51.433594.929688-12.800781-3.335938-23.175781-12.699219-27.808594-25.089844-6.441406-20.367187 10.171875-40.960937 27.878906-53.511719 7.042969-5.074218 14.808594-9.058594 23.039063-11.828125 26.523437-8.386719 54.527344-4.574219 69.734375 9.542969 9.386719 8.304688 13.203125 21.25 9.820312 33.320312-4.863281 20.027344-24.984374 38.332032-51.230468 46.636719zm69.390625-54.992187c.242187-9.285156-2.257813-18.4375-7.183594-26.316406 21.710937-6.023438 44.128906-9.121094 66.660156-9.214844-.296875.316406-.679687.691406-.972656.988281l-.109375.085937c-8.839844 8.625-12.160156 21.449219-8.609375 33.28125-16.5625-2.085937-33.339844-1.6875-49.785156 1.175782zm24.644531 173.535156c-6.175781 6.25-13.230469 11.5625-20.941406 15.777344-.753906.414062-1.445313.9375-2.054688 1.546875-.835937.839843-1.480468 1.851562-1.894531 2.960937 0 .042969-.0625.074219-.078125.117188-7.679688 20.796875-17.390625 60.238281 3.566406 90.753906 4.335938 6.304688 4.070313 9.386719 3.839844 9.695312-.714844.9375-5.410156 2.199219-12.800781-.273437-17.351563-6.527344-28.464844-23.558594-27.441407-42.070313-.1875-14.710937.824219-29.410156 3.019532-43.957031v-.066406c.046875-.613281.023437-1.226563-.066406-1.835937.019531-.507813 0-1.015626-.058594-1.519532-.183594-.546875-.425782-1.074218-.71875-1.570312-.183594-.484375-.414063-.953125-.683594-1.398438-.382812-.457031-.8125-.867187-1.289062-1.226562-.328126-.371094-.691407-.710938-1.082032-1.015625-.578125-.296875-1.183594-.527344-1.808594-.691407-.425781-.210937-.875-.382812-1.332031-.511718h-.058593c-7.382813-1.011719-14.246094-4.363282-19.585938-9.558594-8.859375-9.824219-12.382812-23.351562-9.4375-36.25 3.289062-17.253906 11.859375-33.058594 24.527344-45.226562 19.472656-19.464844 44.984375-28.894532 65.125-23.960938 12.242187 2.605469 21.925781 11.964844 24.941406 24.113281 5.496094 19.910157-4.027344 46.542969-23.6875 66.167969zm210.996094-202.136719c-48.425782 15.359375-86.742188 27.476563-113.152344 35.839844-.011719-5.898437-1.5-11.703125-4.328125-16.878906l12.851563-12.648438 191.667968-61.34375c-8.378906 14.25-30.199218 37.007813-87.039062 55.03125zm0 0"/><path d="m111.285156 178.925781c-12.203125-2.546875-24.863281-1.820312-36.691406 2.117188-27.945312 8.839843-44.066406 30.488281-39.816406 43.921875 3.039062 9.617187 17.066406 16.664062 34.984375 16.664062 7.757812-.039062 15.464843-1.261718 22.855469-3.625 27.9375-8.839844 44.054687-30.472656 39.804687-43.921875-4.03125-8.296875-11.980469-14-21.136719-15.15625zm-23.832031 42.847657c-19.925781 6.289062-33.339844.664062-36.222656-1.972657.851562-3.820312 8.582031-16.144531 28.5-22.441406 19.925781-6.289063 33.339843-.65625 36.214843 1.972656-.84375 3.777344-8.574218 16.09375-28.492187 22.441407zm0 0"/></svg>